<?xml version="1.0" encoding="UTF-8"?>
<!DOCTYPE svg PUBLIC "-//W3C//DTD SVG 1.1//EN" "http://www.w3.org/Graphics/SVG/1.1/DTD/svg11.dtd">
<!-- Creator: CorelDRAW -->
<svg xmlns="http://www.w3.org/2000/svg" xml:space="preserve" width="420mm" height="420mm" version="1.1" style="shape-rendering:geometricPrecision; text-rendering:geometricPrecision; image-rendering:optimizeQuality; fill-rule:evenodd; clip-rule:evenodd"
viewBox="0 0 42000 42000"
 xmlns:xlink="http://www.w3.org/1999/xlink">
 <defs>
  <style type="text/css">
   <![CDATA[
    .fil0 {fill:white}
    .fil1 {fill:#040100;fill-rule:nonzero}
    .fil2 {fill:white;fill-rule:nonzero}
   ]]>
  </style>
 </defs>
 <rect class="fil0" width="42000" height="42000"/>
 <g id="Layer_x0020_1">
  <metadata id="CorelCorpID_0Corel-Layer"/>
  <g id="_945660800">
   <path class="fil1" d="M20830 21489c886,-2950 4487,-7730 10308,-10366 5613,-2542 10798,-3677 10862,-574l0 110c-1,81 -5,165 -13,252 -236,1677 -3773,5454 -4865,5723 -3260,3494 -3212,7763 -5301,7348 -2079,-358 -5834,-4156 -10991,-2493z"/>
   <path class="fil2" d="M35800 13420c419,154 645,518 751,1085 180,968 1060,-809 409,-1115 -692,-325 -1097,-282 -1097,-282 -96,-2 -215,256 -63,312zm-93 -618c643,-110 766,144 1646,326 880,181 1068,-1143 428,-1381 -641,-238 -2311,-328 -2665,-331 -261,-2 92,373 111,696 25,421 -435,848 480,690zm-38 -1692c922,91 1904,210 2547,423 892,353 1083,-1410 -90,-1691 -925,-221 -1996,-46 -2746,575 -202,166 -416,414 -335,602 57,131 391,68 624,91zm-4043 8824c-584,-146 -3594,-991 -4382,-1123 -788,-132 -1471,266 -2156,553 -858,359 -1971,955 -3713,1934 926,-332 1503,-331 2166,-362 2741,202 4294,1037 5479,1530 1184,493 1625,276 2255,79 1178,-451 1118,-1218 1122,-1762 3,-445 -188,-702 -771,-849zm871 -3004c-519,-169 -2199,-603 -2522,-488 -2448,1025 -2959,2037 -2581,2079 755,85 3597,783 4639,1031 1043,248 1088,-958 1365,-1702 255,-683 -382,-751 -901,-920zm25 -334c579,170 842,376 1003,141 1195,-1168 885,-1883 419,-2130 -1762,-730 -3139,799 -3701,1562 583,28 1781,280 2279,427zm-11309 4501c0,0 3783,-6764 8546,-7404 1037,-85 2272,170 1040,1513 -631,676 -837,995 -837,995 0,0 -1795,576 -3215,2218 -805,288 -3539,1472 -5534,2678z"/>
   <path class="fil2" d="M40896 10545c-210,75 -424,-83 -478,-352 -55,-269 71,-548 281,-623 210,-75 425,82 479,351 54,269 -72,548 -282,624z"/>
   <path class="fil2" d="M41053 11643c-158,56 -319,-62 -359,-264 -41,-202 54,-411 212,-468 157,-56 318,62 359,264 40,202 -54,412 -212,468z"/>
   <path class="fil2" d="M40580 12584c-136,48 -275,-54 -310,-228 -35,-174 47,-354 183,-403 135,-49 274,53 309,227 35,174 -46,355 -182,404z"/>
   <path class="fil2" d="M40052 13412c-109,39 -220,-43 -248,-182 -28,-139 37,-283 146,-322 108,-39 219,42 247,181 29,140 -37,284 -145,323z"/>
   <path class="fil2" d="M39371 14080c-90,32 -181,-35 -204,-150 -24,-115 30,-234 120,-266 90,-32 181,35 204,150 24,115 -30,234 -120,266z"/>
   <path class="fil2" d="M38830 14721c-90,32 -181,-35 -204,-150 -24,-115 30,-234 120,-267 90,-32 181,36 204,150 23,115 -30,235 -120,267z"/>
   <path class="fil2" d="M38197 15292c-108,39 -219,-42 -247,-181 -28,-139 37,-283 146,-321 108,-39 218,42 246,181 28,138 -37,282 -145,321z"/>
   <path class="fil2" d="M36767 16404c-109,38 -219,-43 -247,-181 -28,-139 37,-283 145,-322 108,-39 219,43 247,181 28,139 -37,283 -145,322z"/>
   <path class="fil2" d="M36191 17117c-96,34 -193,-38 -218,-160 -25,-123 33,-251 129,-285 95,-35 193,37 218,160 25,123 -33,250 -129,285z"/>
   <path class="fil2" d="M35683 17806c-96,34 -194,-37 -219,-160 -24,-123 33,-251 129,-285 96,-34 194,37 219,160 24,123 -33,251 -129,285z"/>
   <path class="fil2" d="M35181 18646c-96,35 -194,-37 -219,-160 -24,-123 33,-250 129,-285 96,-34 194,38 218,161 25,123 -32,250 -128,284z"/>
   <path class="fil2" d="M34741 19458c-72,25 -144,-28 -163,-119 -18,-92 25,-186 96,-212 71,-25 144,28 162,119 19,91 -24,186 -95,212z"/>
   <path class="fil2" d="M34358 20212c-62,22 -124,-24 -140,-102 -16,-79 21,-161 83,-182 61,-22 123,23 139,102 16,78 -21,160 -82,182z"/>
   <path class="fil2" d="M33915 21103c-45,16 -92,-18 -104,-76 -11,-58 16,-119 62,-135 45,-16 91,18 103,76 12,58 -16,119 -61,135z"/>
   <path class="fil2" d="M37410 15789c-151,54 -306,-59 -345,-253 -39,-194 52,-396 203,-450 152,-54 306,59 345,253 39,194 -52,396 -203,450z"/>
   <path class="fil2" d="M38271 14315c-136,49 -275,-53 -310,-227 -35,-174 46,-355 182,-403 136,-49 275,53 310,227 35,174 -47,354 -182,403z"/>
   <path class="fil2" d="M39214 13022c-210,75 -425,-82 -479,-351 -54,-270 72,-549 282,-624 210,-75 424,82 478,351 55,270 -71,548 -281,624z"/>
   <path class="fil2" d="M35370 16643c-359,87 -688,-137 -736,-500 -48,-363 205,-728 564,-815 359,-87 688,137 736,500 48,364 -205,728 -564,815z"/>
   <path class="fil2" d="M35856 14926c-252,90 -510,-99 -575,-423 -65,-324 86,-660 339,-750 253,-91 511,99 576,423 65,323 -87,660 -340,750z"/>
   <path class="fil2" d="M34525 18014c-228,82 -461,-89 -520,-382 -59,-293 78,-596 306,-678 229,-82 462,89 521,382 59,293 -79,596 -307,678z"/>
   <path class="fil2" d="M33999 19432c-203,73 -411,-80 -463,-341 -53,-261 69,-532 273,-605 204,-73 411,80 464,341 53,261 -70,532 -274,605z"/>
   <path class="fil2" d="M33500 20697c-171,61 -346,-67 -390,-286 -44,-219 59,-446 230,-507 170,-61 345,67 389,286 44,219 -59,445 -229,507z"/>
   <path class="fil2" d="M33136 21763c-140,50 -283,-55 -319,-234 -36,-179 48,-366 188,-416 140,-50 283,55 319,234 36,180 -48,366 -188,416z"/>
   <path class="fil2" d="M32654 22707c-113,41 -228,-44 -257,-189 -30,-145 38,-296 152,-336 113,-41 228,44 257,189 30,145 -38,296 -152,336z"/>
   <path class="fil2" d="M39793 11339c-210,75 -631,-161 -686,-430 -54,-270 195,-460 490,-545 212,-61 424,82 478,351 55,270 -72,549 -282,624z"/>
   <path class="fil2" d="M34580 14385c-300,108 -904,-230 -981,-615 -78,-385 279,-657 700,-779 304,-87 607,118 684,503 78,385 -103,784 -403,891z"/>
   <path class="fil2" d="M32515 13725c-341,152 -1029,-71 -1120,-425 -90,-354 314,-672 793,-858 345,-134 691,12 781,366 90,354 -113,765 -454,917z"/>
   <path class="fil2" d="M34224 12579c-358,47 -975,-229 -992,-494 -18,-265 433,-418 930,-465 358,-33 661,129 678,393 18,265 -258,518 -616,566z"/>
   <path class="fil2" d="M33949 11072c-292,155 -848,190 -899,23 -51,-166 305,-423 714,-626 295,-147 571,-146 622,20 51,166 -145,427 -437,583z"/>
   <path class="fil2" d="M30723 13039c-241,140 -741,76 -816,-145 -74,-221 207,-477 545,-655 244,-129 496,-74 571,147 75,220 -60,513 -300,653z"/>
   <path class="fil2" d="M29111 13330c-240,140 -713,158 -767,-3 -54,-159 235,-394 572,-576 242,-132 479,-124 533,36 54,160 -97,403 -338,543z"/>
   <path class="fil2" d="M32199 11949c-240,139 -713,157 -767,-3 -54,-160 234,-395 571,-577 243,-131 480,-123 534,36 54,160 -97,404 -338,544z"/>
   <path class="fil2" d="M39414 9084c-239,-108 -944,103 -1023,333 -51,151 203,311 558,451 308,121 647,75 715,-161 67,-236 -10,-515 -250,-623z"/>
   <path class="fil2" d="M37676 9179c-216,-21 -652,155 -671,274 -13,77 225,121 541,142 275,19 485,-49 494,-169 8,-120 -149,-226 -364,-247z"/>
   <path class="fil2" d="M35667 9987c-81,61 -236,106 -281,-18 -32,-89 63,-229 145,-290 81,-62 157,-84 199,-2 71,136 19,248 -63,310z"/>
   <path class="fil2" d="M34962 10310c-69,19 -187,5 -196,-98 -6,-73 86,-145 155,-164 69,-19 127,-12 142,59 25,119 -32,183 -101,203z"/>
   <path class="fil1" d="M21046 20950c0,0 2765,-1828 8040,1105 2424,1265 6809,3588 4921,7104 69,843 -957,2816 -1427,3108 -1011,319 -1635,542 -2053,870 -418,328 -1362,260 -2847,-398 -1486,-658 -2107,-1012 -2849,-2245 -742,-1232 -1667,-4212 -3176,-6242 -344,-2712 -1204,-2926 -609,-3302z"/>
   <path class="fil2" d="M24169 21168c1558,-184 3108,345 3108,345 0,0 -402,-259 -938,-439 -2009,-596 -3316,-410 -3903,-317 -587,93 -1021,428 -787,450 633,70 876,575 1027,393 93,-112 450,-309 1493,-432zm-1882 3264c307,557 1054,1919 1571,3063 517,1144 714,2762 1233,2927 758,293 830,-28 674,-542 -155,-513 -990,-2669 -1561,-3559 -321,-500 -1173,-1686 -1962,-2853 -347,-454 -261,407 45,964zm73 -1122c294,404 1365,1534 2195,2918 831,1383 1372,3225 1716,4251 199,638 732,370 1214,270 583,-257 -236,-1501 -454,-1974 -218,-472 -714,-2164 -1095,-3035 -381,-871 -2123,-2222 -3271,-2891 -602,-186 -627,120 -305,461zm4675 4583c313,1104 1043,1753 971,2600 -40,460 127,606 679,769 552,164 725,79 648,-260 -76,-340 -536,-1442 -924,-2787 -192,-666 -711,-988 -2061,-2341 -88,132 523,1439 687,2019zm1870 841c228,627 566,1752 727,2126 161,373 390,375 838,264 448,-111 952,-387 610,-729 -611,-611 -1255,-1597 -1642,-1932 -845,-730 -776,-396 -533,271zm802 -382c105,96 903,1074 1430,1735 527,661 809,112 1155,-248 347,-360 322,-664 -5,-864 -665,-349 -1967,-1315 -3004,-2433 366,694 318,1713 424,1810zm-1576 -3415c329,432 723,846 1036,1191 574,633 2094,1868 2529,2189 434,323 626,275 607,47 -18,-228 -99,-618 122,-921 212,-405 58,-690 -427,-831 -447,4 -3269,-2037 -4396,-2846 304,391 255,812 529,1171zm72 -1037c517,330 2610,1791 3076,2099 466,307 601,26 601,-381 -32,-596 -158,-1242 -453,-1583 -430,-498 -786,-274 -1706,-596 -808,-282 -2619,-345 -2619,-345 0,0 585,475 1101,806zm-2072 -1293c971,487 1811,-89 3981,632 0,0 -2499,-1456 -3712,-1715 -1212,-258 -2951,-198 -3598,291 1352,48 2159,205 3329,792zm-3604 -441c646,-283 2787,339 3691,777 903,439 1182,788 1431,1867 52,325 1801,1426 1442,3101 -90,120 -466,-234 -1247,-1007 -782,-772 -2146,-2262 -2965,-2943 -1074,-891 -2728,-1545 -2352,-1795z"/>
   <path class="fil2" d="M32665 25371c-220,-45 -444,-199 -499,-345 -56,-146 78,-228 299,-184 221,45 445,199 500,345 55,147 -79,229 -300,184z"/>
   <path class="fil2" d="M32800 26536c-271,-84 -523,-309 -563,-501 -40,-193 148,-280 418,-195 271,84 523,309 563,501 40,192 -147,279 -418,195z"/>
   <path class="fil2" d="M22003 21855c-333,-53 -266,-194 -310,-387 -27,-122 221,-59 402,20 161,71 371,263 396,384 25,122 -201,29 -488,-17z"/>
   <path class="fil2" d="M21925 21917c-205,-27 -59,373 -78,568 -17,170 154,147 292,-65 117,-180 177,-218 304,-330 75,-66 -219,-132 -518,-173z"/>
   <path class="fil2" d="M21884 22679c-97,-3 -65,351 -94,439 -55,167 125,-123 189,-222 55,-84 169,-177 221,-233 56,-60 53,-133 -89,-50 -57,32 -191,68 -227,66z"/>
   <path class="fil2" d="M33240 27753c-196,-42 -391,-201 -435,-355 -46,-153 76,-244 271,-202 195,42 390,201 436,355 45,154 -77,244 -272,202z"/>
   <path class="fil2" d="M32775 30254c-125,-124 -161,-342 -80,-487 81,-144 248,-161 373,-37 125,124 161,342 80,487 -81,145 -248,162 -373,37z"/>
   <path class="fil2" d="M31972 30915c-60,-151 7,-364 150,-477 142,-112 306,-81 365,70 60,151 -8,364 -150,476 -143,113 -306,82 -365,-69z"/>
   <path class="fil2" d="M31034 31539c40,-154 230,-317 424,-363 194,-47 319,41 279,196 -40,155 -230,318 -424,364 -193,46 -318,-42 -279,-197z"/>
   <path class="fil2" d="M29782 31587c122,-96 356,-143 523,-104 167,38 203,147 80,243 -122,96 -357,142 -524,104 -166,-39 -202,-147 -79,-243z"/>
   <path class="fil2" d="M28619 31652c137,-43 340,-18 454,55 113,74 94,168 -42,211 -137,43 -340,18 -454,-55 -113,-74 -94,-168 42,-211z"/>
   <path class="fil2" d="M27528 31233c122,-38 303,-16 404,49 101,66 84,150 -37,188 -122,38 -303,16 -404,-49 -101,-65 -84,-149 37,-188z"/>
   <path class="fil2" d="M28163 32225c117,-21 271,12 345,73 73,61 38,127 -79,148 -116,20 -271,-12 -344,-73 -74,-61 -39,-127 78,-148z"/>
   <path class="fil2" d="M29414 32486c125,-60 320,-70 437,-22 116,48 109,135 -15,195 -125,60 -320,70 -437,22 -116,-48 -109,-135 15,-195z"/>
   <path class="fil2" d="M30798 32289c52,-62 164,-110 249,-106 86,3 112,56 60,118 -52,62 -163,109 -249,106 -85,-3 -112,-56 -60,-118z"/>
   <path class="fil2" d="M32237 31740c6,-65 65,-140 133,-167 68,-26 119,5 113,71 -5,66 -65,141 -133,167 -68,27 -118,-5 -113,-71z"/>
   <path class="fil2" d="M32846 30925c-1,-42 32,-93 73,-113 42,-20 77,-2 78,40 1,43 -31,94 -73,114 -42,20 -77,2 -78,-41z"/>
   <path class="fil2" d="M26702 31176c81,-25 201,-10 268,33 67,43 56,99 -25,125 -80,25 -201,11 -268,-33 -67,-43 -56,-99 25,-125z"/>
   <path class="fil2" d="M27237 31790c85,-14 200,17 256,69 56,52 32,106 -53,119 -86,14 -200,-17 -256,-69 -56,-53 -32,-106 53,-119z"/>
   <path class="fil2" d="M25841 30939c87,8 184,65 216,128 33,63 -11,108 -97,101 -87,-8 -184,-65 -216,-128 -33,-63 11,-108 97,-101z"/>
   <path class="fil2" d="M26277 31491c87,-2 193,45 236,104 44,59 8,108 -79,110 -87,1 -193,-45 -236,-104 -43,-59 -8,-108 79,-110z"/>
   <path class="fil2" d="M33067 28745c-198,-96 -347,-320 -333,-501 13,-181 185,-251 383,-155 198,95 347,319 333,500 -14,182 -186,251 -383,156z"/>
   <path class="fil2" d="M32169 24507c-116,-35 -226,-129 -244,-212 -19,-82 61,-120 177,-85 117,35 226,130 245,212 18,82 -61,120 -178,85z"/>
   <path class="fil2" d="M33241 25826c-133,-39 -257,-147 -278,-241 -21,-93 69,-137 202,-97 132,40 257,148 278,241 21,94 -70,137 -202,97z"/>
   <path class="fil2" d="M33578 27082c-133,-40 -257,-148 -278,-241 -21,-94 69,-137 202,-97 133,39 257,147 278,241 21,93 -69,137 -202,97z"/>
   <path class="fil2" d="M33030 29343c-96,-81 -148,-220 -115,-312 34,-91 140,-99 237,-18 97,81 148,220 114,311 -33,91 -139,100 -236,19z"/>
   <path class="fil2" d="M33774 28234c-91,-56 -155,-163 -143,-240 13,-76 96,-93 187,-38 91,56 155,163 143,240 -13,77 -97,94 -187,38z"/>
   <path class="fil1" d="M21172 21489c-886,-2950 -4487,-7730 -10309,-10366 -5821,-2636 -11183,-3761 -10848,-212 235,1677 3773,5454 4865,5723 3260,3494 3211,7763 5301,7348 2078,-358 5833,-4156 10991,-2493z"/>
   <path class="fil2" d="M6202 13420c-420,154 -645,518 -751,1085 -181,968 -1060,-809 -409,-1115 692,-325 1097,-282 1097,-282 96,-2 215,256 63,312zm93 -618c-643,-110 -767,144 -1646,326 -880,181 -1069,-1143 -429,-1381 641,-238 2312,-328 2665,-331 261,-2 -92,373 -110,696 -25,421 435,848 -480,690zm37 -1692c-922,91 -1904,210 -2547,423 -891,353 -1083,-1410 91,-1691 924,-221 1995,-46 2745,575 202,166 417,414 335,602 -57,131 -391,68 -624,91zm4044 8824c583,-146 3593,-991 4381,-1123 788,-132 1471,266 2157,553 857,359 1971,955 3712,1934 -925,-332 -1502,-331 -2166,-362 -2741,202 -4294,1037 -5478,1530 -1185,493 -1626,276 -2256,79 -1178,-451 -1118,-1218 -1121,-1762 -3,-445 187,-702 771,-849zm-872 -3004c519,-169 2199,-603 2522,-488 2448,1025 2960,2037 2582,2079 -756,85 -3597,783 -4640,1031 -1042,248 -1087,-958 -1365,-1702 -254,-683 383,-751 901,-920zm-24 -334c-579,170 -843,376 -1003,141 -1196,-1168 -885,-1883 -420,-2130 1763,-730 3140,799 3701,1562 -582,28 -1780,280 -2278,427zm11308 4501c0,0 -3783,-6764 -8545,-7404 -1038,-85 -2272,170 -1040,1513 631,676 837,995 837,995 0,0 1794,576 3214,2218 805,288 3539,1472 5534,2678z"/>
   <path class="fil2" d="M1105 10545c210,75 425,-83 479,-352 54,-269 -72,-548 -282,-623 -210,-75 -424,82 -478,351 -55,269 72,548 281,624z"/>
   <path class="fil2" d="M948 11643c158,56 319,-62 360,-264 41,-202 -54,-411 -212,-468 -158,-56 -319,62 -359,264 -41,202 54,412 211,468z"/>
   <path class="fil2" d="M1422 12584c135,48 274,-54 309,-228 35,-174 -46,-354 -182,-403 -136,-49 -275,53 -310,227 -35,174 47,355 183,404z"/>
   <path class="fil2" d="M1950 13412c109,39 219,-43 247,-182 29,-139 -37,-283 -145,-322 -109,-39 -220,42 -248,181 -28,140 37,284 146,323z"/>
   <path class="fil2" d="M2631 14080c89,32 181,-35 204,-150 23,-115 -31,-234 -121,-266 -89,-32 -181,35 -204,150 -23,115 31,234 121,266z"/>
   <path class="fil2" d="M3171 14721c90,32 182,-35 205,-150 23,-115 -31,-234 -121,-267 -89,-32 -181,36 -204,150 -23,115 31,235 120,267z"/>
   <path class="fil2" d="M3805 15292c108,39 218,-42 246,-181 28,-139 -37,-283 -145,-321 -108,-39 -219,42 -247,181 -28,138 38,282 146,321z"/>
   <path class="fil2" d="M5235 16404c108,38 219,-43 246,-181 28,-139 -37,-283 -145,-322 -108,-39 -218,43 -246,181 -29,139 37,283 145,322z"/>
   <path class="fil2" d="M5810 17117c96,34 194,-38 219,-160 24,-123 -33,-251 -129,-285 -96,-35 -194,37 -218,160 -25,123 32,250 128,285z"/>
   <path class="fil2" d="M6319 17806c96,34 193,-37 218,-160 25,-123 -33,-251 -129,-285 -95,-34 -193,37 -218,160 -25,123 33,251 129,285z"/>
   <path class="fil2" d="M6821 18646c95,35 193,-37 218,-160 25,-123 -33,-250 -129,-285 -96,-34 -193,38 -218,161 -25,123 33,250 129,284z"/>
   <path class="fil2" d="M7261 19458c71,25 144,-28 162,-119 18,-92 -24,-186 -96,-212 -71,-25 -143,28 -162,119 -18,91 25,186 96,212z"/>
   <path class="fil2" d="M7644 20212c61,22 124,-24 139,-102 16,-79 -21,-161 -82,-182 -61,-22 -124,23 -140,102 -15,78 21,160 83,182z"/>
   <path class="fil2" d="M8086 21103c46,16 92,-18 104,-76 12,-58 -15,-119 -61,-135 -46,-16 -92,18 -104,76 -11,58 16,119 61,135z"/>
   <path class="fil2" d="M4591 15789c152,54 306,-59 345,-253 40,-194 -51,-396 -203,-450 -151,-54 -306,59 -345,253 -39,194 52,396 203,450z"/>
   <path class="fil2" d="M3731 14315c136,49 274,-53 309,-227 36,-174 -46,-355 -182,-403 -136,-49 -274,53 -310,227 -35,174 47,354 183,403z"/>
   <path class="fil2" d="M2788 13022c210,75 424,-82 478,-351 55,-270 -72,-549 -281,-624 -210,-75 -425,82 -479,351 -54,270 72,548 282,624z"/>
   <path class="fil2" d="M6631 16643c359,87 689,-137 736,-500 48,-363 -204,-728 -563,-815 -359,-87 -689,137 -736,500 -48,364 204,728 563,815z"/>
   <path class="fil2" d="M6145 14926c253,90 510,-99 576,-423 65,-324 -87,-660 -340,-750 -252,-91 -510,99 -576,423 -65,323 87,660 340,750z"/>
   <path class="fil2" d="M7476 18014c229,82 462,-89 521,-382 59,-293 -79,-596 -307,-678 -228,-82 -461,89 -520,382 -59,293 78,596 306,678z"/>
   <path class="fil2" d="M8002 19432c204,73 411,-80 464,-341 52,-261 -70,-532 -274,-605 -203,-73 -411,80 -464,341 -52,261 70,532 274,605z"/>
   <path class="fil2" d="M8502 20697c171,61 345,-67 389,-286 44,-219 -58,-446 -229,-507 -171,-61 -345,67 -389,286 -44,219 58,445 229,507z"/>
   <path class="fil2" d="M8865 21763c140,50 283,-55 319,-234 36,-179 -48,-366 -187,-416 -141,-50 -283,55 -319,234 -36,180 48,366 187,416z"/>
   <path class="fil2" d="M9347 22707c113,41 228,-44 258,-189 29,-145 -39,-296 -152,-336 -113,-41 -229,44 -258,189 -29,145 39,296 152,336z"/>
   <path class="fil2" d="M2208 11339c210,75 632,-161 686,-430 55,-270 -195,-460 -489,-545 -213,-61 -425,82 -479,351 -54,270 72,549 282,624z"/>
   <path class="fil2" d="M7421 14385c301,108 904,-230 982,-615 77,-385 -279,-657 -701,-779 -303,-87 -606,118 -684,503 -77,385 103,784 403,891z"/>
   <path class="fil2" d="M9486 13725c341,152 1030,-71 1120,-425 91,-354 -314,-672 -792,-858 -345,-134 -691,12 -781,366 -91,354 112,765 453,917z"/>
   <path class="fil2" d="M7777 12579c358,47 976,-229 993,-494 17,-265 -434,-418 -930,-465 -358,-33 -662,129 -679,393 -17,265 259,518 616,566z"/>
   <path class="fil2" d="M8053 11072c292,155 847,190 898,23 51,-166 -305,-423 -713,-626 -295,-147 -572,-146 -623,20 -51,166 145,427 438,583z"/>
   <path class="fil2" d="M11279 13039c240,140 740,76 815,-145 75,-221 -207,-477 -545,-655 -244,-129 -496,-74 -571,147 -74,220 60,513 301,653z"/>
   <path class="fil2" d="M12890 13330c241,140 713,158 767,-3 55,-159 -234,-394 -571,-576 -243,-132 -479,-124 -534,36 -54,160 98,403 338,543z"/>
   <path class="fil2" d="M9802 11949c241,139 714,157 767,-3 55,-160 -234,-395 -571,-577 -243,-131 -479,-123 -533,36 -54,160 97,404 337,544z"/>
   <path class="fil2" d="M2588 9084c239,-108 943,103 1022,333 52,151 -202,311 -558,451 -308,121 -647,75 -714,-161 -67,-236 10,-515 250,-623z"/>
   <path class="fil2" d="M4326 9179c216,-21 651,155 671,274 13,77 -226,121 -542,142 -274,19 -484,-49 -493,-169 -9,-120 148,-226 364,-247z"/>
   <path class="fil2" d="M6334 9987c82,61 237,106 281,-18 32,-89 -63,-229 -145,-290 -81,-62 -157,-84 -199,-2 -71,136 -18,248 63,310z"/>
   <path class="fil2" d="M7040 10310c68,19 186,5 196,-98 6,-73 -87,-145 -156,-164 -69,-19 -126,-12 -141,59 -26,119 32,183 101,203z"/>
   <path class="fil1" d="M20956 20950c0,0 -2766,-1828 -8041,1105 -2423,1265 -6809,3588 -4921,7104 -68,843 957,2816 1427,3108 1012,319 1636,542 2053,870 418,328 1362,260 2848,-398 1485,-658 2106,-1012 2848,-2245 742,-1232 1667,-4212 3177,-6242 343,-2712 1203,-2926 609,-3302z"/>
   <path class="fil2" d="M17832 21168c-1557,-184 -3108,345 -3108,345 0,0 402,-259 938,-439 2010,-596 3317,-410 3904,-317 586,93 1020,428 786,450 -632,70 -875,575 -1026,393 -93,-112 -451,-309 -1494,-432zm1882 3264c-306,557 -1053,1919 -1571,3063 -517,1144 -713,2762 -1233,2927 -758,293 -830,-28 -674,-542 156,-513 990,-2669 1562,-3559 320,-500 1173,-1686 1961,-2853 347,-454 261,407 -45,964zm-72 -1122c-294,404 -1366,1534 -2196,2918 -830,1383 -1371,3225 -1715,4251 -199,638 -733,370 -1214,270 -583,-257 236,-1501 454,-1974 217,-472 713,-2164 1094,-3035 381,-871 2123,-2222 3271,-2891 603,-186 627,120 306,461zm-4676 4583c-312,1104 -1043,1753 -970,2600 39,460 -128,606 -680,769 -552,164 -725,79 -648,-260 76,-340 537,-1442 925,-2787 192,-666 710,-988 2061,-2341 87,132 -523,1439 -688,2019zm-1869 841c-229,627 -567,1752 -728,2126 -161,373 -389,375 -838,264 -447,-111 -952,-387 -610,-729 611,-611 1255,-1597 1642,-1932 846,-730 776,-396 534,271zm-802 -382c-106,96 -904,1074 -1430,1735 -527,661 -809,112 -1156,-248 -346,-360 -321,-664 5,-864 665,-349 1968,-1315 3005,-2433 -366,694 -318,1713 -424,1810zm1576 -3415c-329,432 -724,846 -1037,1191 -574,633 -2094,1868 -2528,2189 -434,323 -626,275 -608,47 19,-228 99,-618 -121,-921 -212,-405 -59,-690 426,-831 447,4 3270,-2037 4396,-2846 -304,391 -254,812 -528,1171zm-73 -1037c-516,330 -2610,1791 -3076,2099 -465,307 -601,26 -600,-381 32,-596 157,-1242 453,-1583 430,-498 785,-274 1705,-596 809,-282 2620,-345 2620,-345 0,0 -585,475 -1102,806zm2073 -1293c-971,487 -1812,-89 -3982,632 0,0 2499,-1456 3712,-1715 1213,-258 2952,-198 3598,291 -1352,48 -2158,205 -3328,792zm3603 -441c-646,-283 -2787,339 -3690,777 -903,439 -1182,788 -1432,1867 -51,325 -1801,1426 -1441,3101 89,120 465,-234 1247,-1007 781,-772 2145,-2262 2965,-2943 1074,-891 2728,-1545 2351,-1795z"/>
   <path class="fil2" d="M9336 25371c221,-45 445,-199 500,-345 55,-146 -79,-228 -300,-184 -220,45 -444,199 -499,345 -56,147 78,229 299,184z"/>
   <path class="fil2" d="M9202 26536c271,-84 523,-309 562,-501 40,-193 -147,-280 -418,-195 -271,84 -523,309 -563,501 -39,192 148,279 419,195z"/>
   <path class="fil2" d="M19998 21855c333,-53 267,-194 310,-387 28,-122 -221,-59 -402,20 -161,71 -370,263 -396,384 -25,122 202,29 488,-17z"/>
   <path class="fil2" d="M20077 21917c205,-27 58,373 78,568 17,170 -155,147 -292,-65 -118,-180 -178,-218 -305,-330 -74,-66 219,-132 519,-173z"/>
   <path class="fil2" d="M20117 22679c97,-3 66,351 95,439 55,167 -125,-123 -190,-222 -55,-84 -168,-177 -221,-233 -55,-60 -53,-133 90,-50 56,32 190,68 226,66z"/>
   <path class="fil2" d="M8762 27753c195,-42 390,-201 435,-355 45,-153 -76,-244 -272,-202 -195,42 -390,201 -435,355 -45,154 76,244 272,202z"/>
   <path class="fil2" d="M9227 30254c125,-124 160,-342 79,-487 -81,-144 -248,-161 -373,-37 -125,124 -161,342 -80,487 81,145 248,162 374,37z"/>
   <path class="fil2" d="M10030 30915c59,-151 -8,-364 -150,-477 -143,-112 -306,-81 -366,70 -59,151 8,364 150,476 143,113 307,82 366,-69z"/>
   <path class="fil2" d="M10967 31539c-40,-154 -229,-317 -423,-363 -194,-47 -319,41 -279,196 40,155 229,318 423,364 194,46 319,-42 279,-197z"/>
   <path class="fil2" d="M12220 31587c-123,-96 -357,-143 -524,-104 -166,38 -202,147 -80,243 123,96 357,142 524,104 166,-39 202,-147 80,-243z"/>
   <path class="fil2" d="M13382 31652c-137,-43 -340,-18 -453,55 -114,74 -95,168 42,211 137,43 339,18 453,-55 114,-74 95,-168 -42,-211z"/>
   <path class="fil2" d="M14473 31233c-122,-38 -302,-16 -403,49 -102,66 -85,150 37,188 122,38 302,16 404,-49 101,-65 84,-149 -38,-188z"/>
   <path class="fil2" d="M13838 32225c-116,-21 -270,12 -344,73 -74,61 -39,127 78,148 117,20 271,-12 345,-73 73,-61 38,-127 -79,-148z"/>
   <path class="fil2" d="M12587 32486c-125,-60 -320,-70 -436,-22 -117,48 -110,135 15,195 124,60 320,70 436,22 116,-48 109,-135 -15,-195z"/>
   <path class="fil2" d="M11203 32289c-52,-62 -163,-110 -249,-106 -85,3 -112,56 -60,118 52,62 164,109 249,106 86,-3 112,-56 60,-118z"/>
   <path class="fil2" d="M9764 31740c-5,-65 -65,-140 -133,-167 -68,-26 -118,5 -113,71 6,66 66,141 133,167 68,27 119,-5 113,-71z"/>
   <path class="fil2" d="M9155 30925c1,-42 -31,-93 -73,-113 -42,-20 -77,-2 -78,40 -1,43 32,94 73,114 42,20 77,2 78,-41z"/>
   <path class="fil2" d="M15299 31176c-81,-25 -201,-10 -268,33 -67,43 -56,99 25,125 81,25 201,11 268,-33 67,-43 56,-99 -25,-125z"/>
   <path class="fil2" d="M14764 31790c-85,-14 -200,17 -256,69 -56,52 -32,106 54,119 85,14 200,-17 255,-69 57,-53 33,-106 -53,-119z"/>
   <path class="fil2" d="M16160 30939c-87,8 -183,65 -216,128 -33,63 11,108 98,101 87,-8 183,-65 216,-128 32,-63 -12,-108 -98,-101z"/>
   <path class="fil2" d="M15724 31491c-87,-2 -192,45 -236,104 -43,59 -8,108 79,110 88,1 193,-45 237,-104 43,-59 8,-108 -80,-110z"/>
   <path class="fil2" d="M8935 28745c198,-96 347,-320 333,-501 -14,-181 -186,-251 -384,-155 -198,95 -347,319 -333,500 14,182 186,251 384,156z"/>
   <path class="fil2" d="M9832 24507c117,-35 226,-129 245,-212 18,-82 -61,-120 -178,-85 -116,35 -226,130 -244,212 -19,82 61,120 177,85z"/>
   <path class="fil2" d="M8761 25826c132,-39 257,-147 278,-241 21,-93 -70,-137 -202,-97 -133,40 -257,148 -278,241 -21,94 69,137 202,97z"/>
   <path class="fil2" d="M8423 27082c133,-40 258,-148 279,-241 20,-94 -70,-137 -203,-97 -132,39 -257,147 -278,241 -21,93 70,137 202,97z"/>
   <path class="fil2" d="M8971 29343c97,-81 148,-220 115,-312 -34,-91 -139,-99 -236,-18 -97,81 -149,220 -115,311 33,91 139,100 236,19z"/>
   <path class="fil2" d="M8228 28234c91,-56 155,-163 142,-240 -12,-76 -96,-93 -187,-38 -91,56 -155,163 -142,240 12,77 96,94 187,38z"/>
   <path class="fil1" d="M23278 13083c-83,-43 -364,470 -466,664 -143,222 -316,503 -450,763 -567,1063 -957,2327 -1113,2879 -25,89 -69,159 -106,207 -46,-8 -91,-11 -131,-13 0,-1 0,-2 0,-2 -10,0 -22,1 -34,1 -13,0 -25,-1 -35,-1 0,0 0,1 0,2 -33,1 -71,5 -108,10 -36,-48 -79,-117 -103,-204 -156,-552 -546,-1816 -1113,-2879 -135,-260 -307,-541 -450,-763 -103,-194 -384,-707 -467,-664 -108,56 -63,172 -6,246 57,73 134,81 261,223 15,18 53,54 95,95 154,235 368,573 528,884 562,1052 949,2303 1106,2858 30,106 34,183 32,232 -11,3 -24,5 -35,9 -4,-22 -12,-39 -26,-46 -40,-17 -104,41 -144,131 -40,89 -40,176 -1,194 12,5 26,2 41,-5 8,65 -6,123 -37,214 -40,116 -36,376 47,617 0,208 -255,2967 -134,4010 48,919 83,1512 103,2150 19,637 25,1335 31,1489 6,154 55,590 353,590 18,0 34,-2 48,-4 23,2 47,4 75,4 298,0 347,-436 353,-590 6,-154 12,-852 31,-1489 20,-638 55,-1231 103,-2150 120,-1043 -134,-3802 -134,-4010 83,-241 86,-501 47,-617 -31,-91 -44,-149 -37,-214 15,7 29,10 41,5 39,-18 39,-105 -1,-194 -40,-90 -104,-148 -144,-131 -15,7 -22,24 -26,46 -3,-1 -6,-1 -10,-2 -2,-49 1,-128 32,-239 158,-555 545,-1806 1107,-2858 160,-311 374,-649 528,-884 42,-41 79,-77 95,-95 126,-142 203,-150 260,-223 58,-74 103,-190 -6,-246z"/>
  </g>
 </g>
</svg>
