<svg id="Layer_1" data-name="Layer 1" xmlns="http://www.w3.org/2000/svg" viewBox="0 0 1141 850.3"><defs><style>.cls-1{fill:#fff;}</style></defs><path class="cls-1" d="M1009.9,742c.6-1.2,1.3-2.3,1.8-3.5s.5-2.6,1.2-3.3a31.5,31.5,0,0,1,4.7-3c.5,1.6,1.6,3.3,1.3,4.8a189.7,189.7,0,0,1-4.1,19.9c-1.3,4.3-6.5,7-11.3,6.3s-5.7-3.5-6.8-6.9c-2.2-7-4.8-13.9-6.4-21a122.9,122.9,0,0,1-2.5-20c-.8-13-1.8-26-1.8-39-.1-15.3.8-30.5,1.2-45.8,0-1.3-.9-2.6-1.4-4a24.6,24.6,0,0,1-3.4,2.2c-2.9,1.4-5.7,3-8.7,4.1-5.3,2-10.8,3.5-15.9,5.6s-9.6,4.9-14.5,7.2-8.9,3.9-13.4,5.7c-.7.4-1.6.4-2.2.8-5.2,3.6-10.1,7.4-15.4,10.7a99.4,99.4,0,0,1-12.7,6.2c-3.4,1.3-6.7,2.4-8.2,6a4.4,4.4,0,0,1-1.5,1.8l-8.4,4.9c-5.8,3.2-11.6,6.4-17.3,9.7-2.9,1.7-4.8,3.9-3.5,7.9,3.6,10.2,6.2,20.7,10.3,30.7s9.6,19.8,14.5,29.7c1.3,2.6,3.3,4.9,4,7.6a11.4,11.4,0,0,1-.7,6.8c-1.9,5-8.1,7.8-12.9,5.6a9.4,9.4,0,0,1-3.8-4.5c-3.9-8.8-7.8-17.6-11.1-26.6-4.6-12.4-8.7-25.1-13-37.7-.6-1.9-1.3-3.9-1.9-5.6-12.5,4.3-23,11.3-33.4,18.6-6.1,4.2-13.4,6.8-20,10.1-8.5,4.3-16.9,8.8-25.4,12.9a24.4,24.4,0,0,1-7.6,2,5.5,5.5,0,0,1-5.9-5.8c.1-2-.6-4.1-.1-5.8a13.8,13.8,0,0,1,3.4-5.3c10.3-10,20.8-19.9,31.1-30,8.6-8.3,17.2-16.8,25.5-25.3,5.5-5.6,10.5-11.5,15.7-17.2a6,6,0,0,0,1.3-6.9c-4.4-11.5-8.4-23.2-13-34.7s-10.6-25.4-16.4-37.9c-1.8-3.7-3.5-7.2-3.2-11.5s2.4-8.2,5.6-8.9,9.7,1.2,11.3,5.6c3.9,10.7,7.6,21.5,11.3,32.2.4,1.4.2,2.9.5,4.3.6,3,.5,6.1,4,8,1.6.9,2.1,3.8,2.9,5.9,2.6,6.6,5.1,13.3,7.6,19.9.6,1.8,1,3.7,1.7,6.5,2.3-2.8,4.2-4.9,5.9-7.2,4.1-5.7,8.1-11.3,12-17.1,6-9,12.3-17.8,17.4-27.2a332.4,332.4,0,0,0,17-36.3c4.2-10.8,5.6-22.3,5.6-34,.1-8.9-3.6-16-8.4-22.6-2.5-3.3-6.9-5.3-10.6-7.6-10.6-6.6-21.5-2.3-32.5-1-9.4,1.1-16.3,6.9-24,11.3a63.8,63.8,0,0,0-9.2,6.1c-5,4.3-9.7,9.1-14.4,13.7s-10.9,10-15.8,15.4c-8.6,9.3-17.3,18.5-25,28.6a75.1,75.1,0,0,0-14.3,30.3c-1.6,7.4-3.5,14.7-2.7,22.2s1.8,17.7,7.1,25.6,8.6,14.4,12.9,21.6c1.4,2.3,2.9,4.8.4,7.1s-9.2,1.1-10.5-1.3C748.4,659,741,649.5,737,638.2a68.7,68.7,0,0,1-4.5-26.6c.4-8.8.8-17.5,4.5-25.5,4.5-9.8,7.2-20.7,15.9-28.4,4-3.6,6.5-8.7,10.2-12.8s9.1-9.5,13.8-14.1c6.2-6.2,12-12.8,18.7-18.4s15.3-11.1,23-16.6c3.3-2.3,6.7-4.7,10.2-6.8a120.5,120.5,0,0,1,13-6.4c5.7-2.3,11.4-4.8,17.4-6,4.2-.9,8.8-.1,13.2.5s11.1,1.3,15.9,3.6a39.3,39.3,0,0,1,12.8,10.2,43.3,43.3,0,0,1,9.9,25.7,7.1,7.1,0,0,1-.8,3.8c-.8,1.8-2.2,3.4.3,5.1.3.2.4,1,.4,1.4-.9,6.5-1.3,13.1-2.8,19.3-3.2,12.7-7.8,24.9-14.7,36.1-2.7,4.3-4.3,9.4-7,13.7q-12.3,19.2-25.1,38.1c-4.3,6.2-9.1,11.9-13.6,18a3.6,3.6,0,0,0-.3,2.9c2.7,9.2,5.7,18.4,8.3,27.7,1,3.4,2.7,3.4,5.1,1.8,8.1-5.2,16-10.8,24.3-15.6,13.6-7.9,26.1-17.6,41.1-23.2,7-2.5,13-7.3,19.8-10.5,8.4-3.9,17.1-7.1,25.6-10.8,4.9-2.2,10.1-4.2,14.3-7.4,2.1-1.5,2.2-5.5,3.4-8.8-9.2-.7-11.3-7.9-15-13.2s-6-10.2-9.5-15c-1.6-2.2-4.9-3-5.6-6.6s-3.1-10.1-4.5-15.2,1.5-9.6,6.7-12.5,10.4-2.1,13.4,1.5a7.5,7.5,0,0,1,1.2,4.4,45.3,45.3,0,0,0,4.1,20.3c1.9,4,4.8,7.5,7.6,11,1.3,1.7,3.3,1.7,4.5-.6a27.9,27.9,0,0,0,2.4-5.3c3.3-10.7,6.2-21.5,9.6-32.1,2.7-8.3,6.2-16.5,8.9-24.8,1.3-3.8,1.3-8,4.6-11.1s5.1-3.1,8-1.9,7,1.8,7.3,6.2a14,14,0,0,1-1,3.9c-.9,2.4-2,4.8-2.7,7.2-1.7,6.8-4.5,13.2-5.8,20.3-1.5,8.8-5.1,17.3-8.3,25.8-1.6,4.3-4.5,8.1-6.3,12.3a74.2,74.2,0,0,0-6.3,25c-.1,2.2.8,3.1,3.2,2.4,9.3-2.7,18.6-5.7,28-8.1s18.8-4.7,28.4-6.2c5-.7,10.4.2,15.6.8s7.2,8.4,4.5,11.7c-6.1,7.3-14,11.8-22.8,14.8-3.9,1.3-7.3,3.6-11.1,4.9-9.8,3.6-19.6,6.9-29.5,10.1-2.5.8-5,.4-6.4-3.1,8.6-3.6,17.1-7.2,25.5-11,6.7-3,13.2-6.3,19.8-9.6,2.8-1.4,5.5-2.9,8.2-4.5l4.4-3.2-.9-2c-3.5.1-7.1.1-10.5.5-15.8,2.3-31,7.2-46,12.3-3,1-5.9,1.9-8.8,3.1-1,.4-2.4,1.7-2.5,2.7-.6,12-1.2,24.1-1.4,36.2-.2,9.4.2,18.9.4,28.4.1,4.6.5,9.2,1,13.8s.8,11.3,1.8,16.8c1.4,7.7,3.4,15.3,5.1,23ZM779.7,726.5l1.1,1.3a105.8,105.8,0,0,1,10.2-4.9c11.4-4,21.6-10,31.7-16.4,5.8-3.8,12.3-6.5,18.3-10a4.3,4.3,0,0,0,1.4-3.7c-2.3-7.5-4.8-15-7.6-23.3C816.8,689.3,796.9,706.6,779.7,726.5Z" transform="translate(-389.5 -114.9)"/><path class="cls-1" d="M649.8,255.3c-1.1,2-2.4,3.9-3.3,6-6.3,13.3-12.5,26.7-18.6,40.1-2.8,5.9-5.1,12.1-8,17.9-6,12.1-12.4,24-18.2,36.1-7.9,16.3-15.8,32.6-22.9,49.2-3.8,8.7-6.2,18.1-8.8,27.3s-4.2,16.7-6.2,25.1-.9,17.5,1.6,26.1,6.8,16.3,14.2,21.8a36.5,36.5,0,0,0,19.5,7.6c7.8.5,15.5,1.2,23.2.9,9.4-.3,17.9-3.7,26.1-8.2,4.6-2.5,9.4-4.7,13.9-7.4a69.4,69.4,0,0,0,8.6-6.8c2.7-2.4,5.8-2.4,8.9-1.1s5.6,4.2,5.1,7.6-2,5.8-4.1,7c-5,3-10.6,5.1-16,7.5s-11.7,5.4-17.6,7.7A99.6,99.6,0,0,1,635,523c-2.1.5-4.4.6-6.6,1.3a48.9,48.9,0,0,1-24.9.8c-1.5-.3-3.2.2-4.7-.2-4.1-1.2-8.2-2.6-12.2-4A44.4,44.4,0,0,1,560.3,498a53.6,53.6,0,0,1-5.9-29.4c.9-9.5.8-19.2,2.9-28.5,2.5-11,6.7-21.7,10.5-32.4,3.1-8.6,6.5-17,10.1-25.3,2.4-5.5,5.4-10.7,8-16.2s4-9.7,6.2-14.5c1.5-3.3,3.5-6.3,5.1-9.6,3.4-7.1,6.6-14.3,10-21.5,1.6-3.6,3.4-7.1,5.2-10.6.6-1.3,1.4-2.5,2-3.8,6.6-13.3,13.3-26.5,19.6-39.9,3.6-7.6,5.8-15.9,9.9-23.1s2.7-16.3,1.8-24.5a247.4,247.4,0,0,1-2.1-31.1c.1-13,3.1-25.2,7.7-37.2a24.8,24.8,0,0,1,2.7-3.9c5.9-7.7,11.6-15.5,17.8-23,1.8-2.2,4.9-3.5,7.4-5.1a22.3,22.3,0,0,1,4.8-2.6c1.4-.6,3.2-1.2,4.4-.8,7.6,2.7,12.3,7.2,11,15.9a70.2,70.2,0,0,1-7.6,22.6c-2.4,4.2-3.6,9-5.5,13.5-3.6,8.9-7.4,17.7-11.1,26.6l-16,39a12.5,12.5,0,0,0-.7,4.7c.4,7,.9,13.9,1.7,20.9,1.3,11.2,3.1,22.3,4.5,33.5s2.3,21.9,3.9,32.8c.7,4.9,2.8,9.5,3.8,14.4,1.5,7.9,3,15.8,4,23.8s1.4,15.7,2.3,23.6c.3,2.6,1.6,5.1,2.4,7.6,1.3,4.6-.9,9.9,2.6,14.2.5.5-.2,2-.2,3s.3,4.5.7,6.6,1.5,4.7,1.8,7.1c1.2,8.8,1.9,17.7,3.2,26.5.3,2.6,2.3,4.9,2.8,7.5,1.6,10,2.4,20,4.5,29.8,1.3,6.4,2.7,12.7,3.5,19.2s3.8,14.2,5.3,21.4,2.5,16.7,3.9,25.1c.6,4,1.4,7.9,2.3,11.9s2.5,9.5,3.6,14.3,1.3,6.8,1.9,10.3c1.1,6.3,1.9,12.6,3.3,18.9s2.8,9.7,4.1,14.6a46.8,46.8,0,0,1,1,5.4c.8,5.2,1.8,10.5,2.6,15.7s.8,7.6,1.2,11.8l-2.2-.6c0,.2-.2.6-.1.7,4.1,7,3.8,15,5.3,22.6A51.7,51.7,0,0,0,734,685a7.5,7.5,0,0,1,.9,2.5l.3,35.1c.1,2.1.6,4.1.6,6.2s-.6,5.3-.8,7.9c-.1,1-.6,2.4-.1,3,3.8,4.1,0,8.4.2,12.6s-1,8.4-1.8,12.6-2.2,5.9-2.1,8.8c.2,8.6-2.4,16.4-5.3,24.2-.4,1.3,0,2.9-.2,4.3s-1,4.3-1.6,6.4c-.1.4-.8.7-.9,1.2-1.7,4.5-3.1,9-4.9,13.4s-4.3,9.6-6.3,14.4c-.4.8-.1,1.9-.1,2.8s.2,2.2-.2,2.9c-2.1,3.2-4.4,6.3-6.7,9.5l-1.5,2.3c-3.3,5.7-6.8,11.4-9.9,17.2-1.3,2.4-1.6,5.4-3.1,7.7s-4.3,3.7-6.1,5.9-5.5,6.8-8,10.4-4.1,8.3-9.9,8c-.8,0-1.7,1.2-2.4,2-3.1,4-8.2,6.1-10.3,11.4-.7,1.9-3.2,4.7-6.7,3.4-.4-.2-1.3.2-1.7.5-15.5,12.2-33.2,20-51.1,27.7-10.8,4.6-22,6.8-33.2,9.5-9.4,2.4-19,4.5-28.6,6.2-2.4.5-5.1-.8-7.7-.9-8.9-.1-17.9.2-26.8-.2-3.2-.2-6.2-2.4-9.5-3.2-6.8-1.9-13.7-3.5-20.5-5.2l-3.3-1c1.6-4.5-1.7-5.2-4.5-6.4l-11.1-4.9-.3-.2c-3.5-6.7-11.6-8.3-15.7-14.1S425.2,918,422.2,912c-1.5-3-3.7-4.8-5.8-7.1s-6.3-8.9-6.5-13.6-1.5-7.6-2.9-11c-2.1-5.3-5.5-10.1-8.1-15.2-.7-1.6-1.2-3.8-.7-5.3s.3-4.3-1.8-5.8-1.9-5.2-1.6-8,1.2-6.9-2.9-8.9a2.1,2.1,0,0,1-1-1.6c-.3-4.5-.6-9.1-.7-13.7-.2-6.7-.2-13.5-.3-20.2-.1-3.5-.8-7.1-.1-10.4s2.6-6.6,4.1-10.3c-2.6-3.7-2.4-4.1,1.2-9a9.4,9.4,0,0,0,1.8-6.6c-.9-5,.2-8.8,3.4-13s6.3-7.8,3.4-13.3a3.5,3.5,0,0,1,.4-2.6,81,81,0,0,1,4.9-10.8c.9-1.4,3.2-2,5.4-3.3.1,11.3-3.3,20.3-7,29.3a17.6,17.6,0,0,0-1.2,4.5c-.2,2.1-.2,3.9-3.1,4.1-.7.1-2.2,2.5-1.9,3.4,2.2,6.4,2.2,12.1-3.9,16.6-.2.1-.2.7-.3.9s3.5,2.8,3.3,3.3c-1.4,3.2.9,7.3-2.6,9.9s-3.5,3.4-.9,6.2c1,1,1.2,3.6.6,5s-.5,4.4.4,6.9,1.4,7.4,2,11.1c.9,5.4,1.3,11,2.8,16.2,3.8,13,7.8,26,12.1,38.8a53.5,53.5,0,0,0,6.1,11.9c7.7,11.5,14.6,23.7,23.7,33.9a74.1,74.1,0,0,0,39.2,22.8c10.4,2.2,20.7,4.8,31.3,6,12.4,1.4,24.9,0,37.3-1.6,15.8-2,30.7-6.4,45.5-11.7s30.5-14.3,43.8-24.8a293.7,293.7,0,0,0,25.1-22.1c5.4-5.3,9.7-11.8,14.5-17.7,10.6-13,17.5-28.1,24.8-42.9,3.5-7.1,4.8-15.2,7.7-22.7,5.8-15,8.4-30.7,11.1-46.4,1.6-9.8,2-19.9,2.2-29.9s.3-20.3-.8-30.4c-1.8-17.3-4.1-34.5-6.8-51.7-1.7-10.9-4.6-21.6-6.7-32.4s-3.5-21.3-5.6-31.9-4.8-22.1-7-33.2c-2.6-12.9-4.7-25.9-7.3-38.8s-5.1-24.8-7.6-37.2c-1.3-6.4-2.4-12.9-3.5-19.4-2.7-16.9-5.5-33.8-8.2-50.7-1.8-11.4-3.3-22.9-5.2-34.3s-3.8-20.7-5.5-31.1-2.7-19-4-28.5c-.8-5.3-1.7-10.7-2.4-16-1.6-11.7-3.1-23.4-4.7-35-.3-2.4-.7-4.8-1.1-7.2Zm6.2-43.6,1.5.5c.8-2.1,1.7-4.2,2.3-6.3s.8-4.7,1.7-6.8c3.7-8.2,7.9-16.2,11.4-24.5s5.2-14.3,7.6-21.5c1.2-3.4,2.1-6.9,3.2-10.4s1.9-4.8,2.5-7.2-.6-3.9-3.5-3.6-6.3,2.8-8.7,5.5A76.1,76.1,0,0,0,659.3,161a52.7,52.7,0,0,0-3.7,14.8,205.4,205.4,0,0,0-1.1,23.5C654.5,203.5,655.4,207.6,656,211.7Z" transform="translate(-389.5 -114.9)"/><path class="cls-1" d="M1456.1,350.6,1436.8,361c-6.6,3.7-13.4,7.4-19.8,11.4-12.2,7.8-24.3,15.8-36.4,23.8-4,2.7-7.8,5.7-11.8,8.5s-.8,5.4-.4,8a61,61,0,0,0,2.9,10.1,5,5,0,0,0,3,2.7c6.5,1.2,13.2,1.6,19.7,3.2a178.9,178.9,0,0,1,24,7.1c13.4,5.3,26.3,11.6,34.6,24.1,6.9,10.4,11,21.7,7.4,34-2.7,9.3-7.3,18.1-15.1,24.5-4.9,3.9-9.9,7.9-15.4,10.9s-19.9,3.2-26.3-3.3a111.5,111.5,0,0,1-19.3-26.2c-1.3-2.4-1.8-5.1-4.8-6.1a1.6,1.6,0,0,1-.6-1.4c1.4-7.6-3.3-13.4-5.9-19.8-1.7-4.1-3.9-8-5.2-12.2-2.4-7.5-4.3-15.2-6.3-22.8-.7-3-2.1-3.9-5.3-3.4s-7.9-.1-11.7.2c-5.5.5-11,1.1-16.3,2.1-3.5.7-6-.3-7.6-3.5-3.1-5.9-6.8-11.5-9.9-17.4a152.7,152.7,0,0,1-11.9-30.3c-1.3-4.5-3.4-8.8-4.8-13.3s-3-10.6-4.5-15.9c-.4-1.3-1-2.5-1.5-3.7l-1.1.2a41.6,41.6,0,0,0-.3,6.1c.9,10.7.5,21.2-4.7,31.1-2.5,4.8-4.6,9.7-6.8,14.6-.4.9-.6,2.4-.1,2.9,2.3,2.3,4.4,5.3,7.3,6.4,6.7,2.8,9,8.5,10.4,14.5,2.4,10.2.7,19.7-5.9,28.4-3.9,5-12.1,7.7-16.8,5.9s-7.7-5.3-10.7-8.9c-7.8-9.3-7.8-21.4-10.1-32.5-.8-3.9,2.1-8.6,3.7-12.8s5.4-7.2,10-9.1c2.3-.9,4.1-3.8,5.2-6.2,2.5-5.6,4.7-11.2,6.7-17,3.3-9.8,2.9-20.1,1.6-30.1-1.1-8.1-3.7-16-6-23.9-.7-2.4-2.6-4.4-4.1-6.5a14.8,14.8,0,0,0-2.5-2.5c-7.4-7.2-1.1-15.1,5.1-17.9,2.8-1.2,8.4,1.1,10.1,4.6s3.6,9.8,5.9,14.5,5.9,10.8,8.8,16.2a55.9,55.9,0,0,1,2.6,6.1c4.6,12.5,8.7,25.3,13.9,37.7s7.7,26.1,15.9,37.3a22.3,22.3,0,0,0,2.7,2.6c.7-1,1.9-1.9,2.2-3.1,1.7-6,3.2-12.1,4.7-18.2,1-4.2,1.7-8.4,2.8-12.6,2.5-9.8-.2-19-3.2-28.2s-7.1-20.3-10.4-30.6a40,40,0,0,1-1.7-8.5c-1-9-2.1-18-2.8-27-.4-6-.2-12-.6-18s3.4-13.1,9.9-13.7a8.4,8.4,0,0,1,8.7,6.5c1.6,6.3,2.7,12.8,3.8,19.3.7,4.4,1.1,8.8,1.5,13.3.3,2.1.3,4.2.4,6.3l5.5,50.9c2.2,6.8,4.2,13.8,6.3,20.7l6.3,21c1,3.4,1.9,3.7,5,1.8,15.9-9.9,31.8-20,47.8-29.8,9.5-5.8,19.3-10.9,28.6-16.9s19.8-13.7,29.8-20.4c5.5-3.8,11.4-7,16.8-11s10.1-8.3,15.1-12.5a27.8,27.8,0,0,1,3.4-2.6c2.3-1.1,3.8-2.3,3.8-5.3,0-1.3,1.7-2.8,2.9-4,2.9-2.8,9.6-3.6,12.3-1.6,4.7,3.5,4.1,8.7-1.2,11.2a27.9,27.9,0,0,0-4.2,2.8c-4,2.8-7.9,5.8-12.1,8.5a89.9,89.9,0,0,1-10.5,5.8c-1.4.6-3.1.3-5.1.5.1,2.3,1.6,5.9-3.5,5a2.7,2.7,0,0,0-1.7,1.6c-.2,5.6-5.5,6-8.7,8.5s-6.6,4.8-9.9,7.2ZM1345.3,334m105.5,153.7c-.5-12.9-3.6-21.9-10.8-29.2s-16.5-12-26.6-14.7c-11.6-3.2-23.5-5.7-35.2-8.6-2.9-.7-3.4.3-2.6,2.7,1.6,5.4,3.1,10.9,4.9,16.2,4.1,12.1,8.3,24.2,12.5,36.2,3.4,9.7,9.5,17.5,16.9,24.4,4.9,4.6,10.4,5.1,16.4,2,1.6-.8,3.5-1.1,5.3-1.8a7,7,0,0,0,2.7-1.4c3.2-3.4,6.8-6.7,9.2-10.7S1449.1,491.2,1450.8,487.7Zm-167-55.2c-.3-3.4-.5-7.3-4.1-7s-7.6,2.6-11.4,4.2c-.2.1-.2,1-.1,1.5.2,5,2.7,9,5.7,12.7a2.6,2.6,0,0,0,2.3.6C1280.3,441.3,1283.1,437.3,1283.8,432.5Zm54.6-116.7c2.4-9.7-1.1-18.4-3.8-28.4C1332.9,298,1336.5,306.8,1338.4,315.8Zm4.8,94.2c4.1-1.6,7.5-3.5,7.7-7.2s-2-5.7-3.1-8.5l-1.1.4C1345.5,399.6,1344.4,404.5,1343.2,410Zm12.1,6.5-1.4-.6c-.9,1.3-2.9,3.1-2.6,3.8s2.6,2.4,4,3.6l1-.9Z" transform="translate(-389.5 -114.9)"/><path class="cls-1" d="M1052.3,239.4c-1.3,5.6-2.6,11.2-3.8,16.9-2.1,10-4.4,20-6,30.2s-1.8,18.3-2.5,27.5c-.1,2.3-.4,4-2.8,5s-3.6,2.2-5.4,3.3c-4.9,2.8-6.9,1.9-7.9-3.6-1.7-9.3-2.8-18.7-5.1-27.9-2.9-11.7-6.7-23.2-10.2-34.8-.3-1-1-2.1-.9-3,.9-5.6-2.1-10.1-4.2-14.9-3-6.9-5.8-13.8-8.9-20.7-.7-1.7-2.3-3.1-3.3-4.7s-2.6-4-3.7-6.1c-2.4-5.1-4.5-10.3-7-15.4-1.6-3.3-2.9-3-5.4-.3a122.1,122.1,0,0,1-12.1,11.8c-5.1,4.1-5.1,3.8-3,10.7,3.4,11.1,9.2,20.9,14.2,31.1,6.2,12.8,11.9,25.9,18.3,38.6,3.5,7.1,8.2,13.6,11.9,20.6s8.7,12.5,10.1,20.3a10.2,10.2,0,0,0,1.6,3.1c2.3,4,2,7.2-.8,9.6s-9.5,2.7-11.8.1-4.5-5.1-4.3-9.6-3.2-7.5-5.1-11.2c-1.2-2.2-2.6-4.2-3.7-6.4-5.6-11.3-11.1-22.7-16.6-34l-19.5-41.3c-2.2-4.8-4.3-9.6-6.4-14.4-1.3-2.8-2.9-2.1-4.7-.6-6.1,5.5-11.9,11.5-18.5,16.5-8.8,6.9-13.7,16.1-17.8,26-2.8,6.6-2.8,13.4,1.5,19.6,2.3,3.5,4.6,7,6.7,10.6.7,1.1.7,2.7,1.2,4.9a40.6,40.6,0,0,1-6.3-1.6c-7.9-3.3-15.3-7.2-17.3-16.6-.7-3.2-1.4-6.8-.7-10,2.6-12.3,7.7-23.2,18.2-31.3,8.6-6.7,16.1-14.8,24.1-22.2s7.7-7.1,3.9-16.8c-4.5-11.5-9.2-22.9-13.8-34.4a14.1,14.1,0,0,0-1.3-2.4c-4.2-5.2-4.5-8.8-1.2-14.6,2.2-4,8.9-4.6,11.3-.8s4.3,8.5,6.4,12.9c3.6,7.6,7.2,15.2,10.7,22.8,1.6,3.4,3.2,6.7,4.6,10.1s2,2.4,3.9,1.1c5.8-3.8,10.2-9,14.6-14.3.9-1.1.4-3.7-.1-5.5-1.9-6.8-4.4-13.4-6-20.3a45,45,0,0,1,1.2-25.2c1.3-4,4.2-9.1,9.3-9.2s11.9-.2,15.3,5.4a38.7,38.7,0,0,1,4.5,12.3c2.2,10.8.3,21.3-4,31.3-1.2,2.6-3.1,4.8-4.3,7.4a6.4,6.4,0,0,0,0,4.7c5.3,11,11.2,21.8,16.1,33s10.3,24.8,15.1,37.3c2.5,6.5,4.5,13.2,6.6,19.9.8,2.8,1,5.7,1.8,8.5.4,1.2,1.7,2,2.7,3a14.3,14.3,0,0,0,2-3c2.3-6.8,4.4-13.7,6.5-20.6.3-.8,0-1.8.1-2.7s.6-4.1,1-6.1,1.2-3.5,1.3-5.2c.3-8.8.4-17.6.6-26.4.1-4.5,3.3-7.1,6.4-9.5a3.7,3.7,0,0,1,2.9.2c4.3,2.1,7.6,4.6,9.1,10,3.3,11.9,6.6,24,12,35.1s10.3,25.6,20.8,35.1c3.3,2.9,7.2,5.1,10.8,7.7,1.4,1.1,2.7,2.4,4.1,3.7-1.8,1.5-3.3,3.8-5.4,4.5s-4.3-1.3-6.4-1.1c-8,1.1-11.4-5.9-17-9.2-2.8-1.7-4.1-4.6-4.4-8.3s-2.4-4.9-3.9-7.2c-2.7-4.2-5.8-8.1-8.1-12.5-1.5-2.9-1.8-6.4-2.6-9.6a5,5,0,0,0-.2-1.2l-7.9-15.9Zm-69-74.2c6.7-6.1,6.3-14,7.5-21.4.1-.6-.8-1.5-1.4-2.1a29.5,29.5,0,0,0-2.5-2.5l-4.6-3.8a59.6,59.6,0,0,0-2.5,5.8,6.1,6.1,0,0,0,0,2.7c.5,3.9,1,7.8,1.7,11.7S982.6,161.7,983.3,165.2Z" transform="translate(-389.5 -114.9)"/><path class="cls-1" d="M1217.9,470.9a23.8,23.8,0,0,0-1.8,3.3c-1.1,3.2-1.7,6.7-3.2,9.7-3.3,6.5-5.6,13.4-10.7,19.1s-6.3,10.5-9,15.9-8,6.4-12.1,2.1c-.8-.7-1.4-1.7-2.2-2.1-2.5-1-4.5-2-7.1.9-4,4.6-8.9,8.5-13.8,12.3a36.7,36.7,0,0,1-8.8,5.1c-4.7,1.9-12.1-2.5-14.3-8.2a40.1,40.1,0,0,0-2.5-3.7c-1.1.9-2.5,1.6-3.1,2.8-4,6.6-7.5,13.4-11.7,19.9s-6.4,13.5-14.7,16.3c-6,2-10.9.3-12.3-6s-3.9-11.1-9-15.6c-2.9,6.1-5.6,12.1-8.6,18-4.5,8.8-9.8,17.3-18.2,22.8-5.5,3.7-12.9,2.6-14.4-5.9-1.2-6.7-1.7-13.5-2.6-20.2a11.5,11.5,0,0,0-1.8-3.9c-1.9-3-4.4-5.7-5.6-8.9a12.1,12.1,0,0,1,0-8.4c1.5-3.5,4.2-6.7,6.9-9.5s6.8-1.5,10,.7c5.4,3.9,4.9,9.5,4.9,15.1a57.4,57.4,0,0,0,.7,9.3c.6,3.5,1.5,7,2.4,10.4a11.5,11.5,0,0,0,1.1,1.4c4.5-4.9,9-9.5,13.2-14.4a12,12,0,0,0,2.8-5.9,162.4,162.4,0,0,0,1.8-17.1c.2-4.6,3.7-9.7,8.2-10.9s8.8,1.9,10.7,5.8,4.7,10.7,7.4,15.7,5.9,5.6,9.4.4c5.5-8,10.4-16.3,15.9-24.2a35.3,35.3,0,0,1,7.9-8c2.8-2.1,11.5,1.5,12.8,4.9s7.1,5.9,10.5,4.4a18.4,18.4,0,0,0,10-9.4c2-4.3,4-9.9,11-8.9,1.2.1,3.3-2.5,4-4.2,3.1-7.7,5.9-15.4,8.7-23.2a19.6,19.6,0,0,0,1.3-5.3c.3-4.5,3.4-7.1,6.5-9.4,1.3-.9,3.7-.3,6-.4,2.1-4-.5-8-1.9-11.5-4.4-10.5-9.6-20.5-14.1-30.9-3.1-7-5.4-14.3-8.4-21.3-3.8-8.9-7.6-17.9-12.2-26.4a14.3,14.3,0,0,1,.7-15.2c2-3.1,5.8-4.4,9.8-3.8s6.2,2.8,6.5,6.4c.9,9.9,5.1,18.8,8.3,27.9,5.4,15.2,11.4,30.2,17.8,45,4.1,9.2,9.6,17.8,14.3,26.7,1.2,2.2,1.8,4.8,3.4,6.7a194.4,194.4,0,0,0,13.4,15.4,10.4,10.4,0,0,0,12.7,2.1c1.4-.6,3.7-1,4.7-.3s2.7,4.1,1.4,6.7c-5.5,11.3-21.8,14-30.2,3.9C1226.8,480.2,1222.5,475.9,1217.9,470.9Z" transform="translate(-389.5 -114.9)"/><path class="cls-1" d="M1136.1,243.1c-2.3,3.7-3.6,6.2-5.2,8.5-4.2,5.8-8.1,12-13.1,17s-9.9,7.7-15.3,10.9c-2.8,1.7-7-1-8.1-4.9s-1.4-7.7-2.1-11.5a61.8,61.8,0,0,1,.7-25c1.6-7,4.4-13.7,6.7-20.5.5-1.4,1.3-2.8,1.9-4.3,2.2-4.6,5.1-5.9,10.2-4.6s7.3,4.7,7.1,9.3a51,51,0,0,0,.4,7.8c.5,5.7-2.3,8.5-8.1,8.2h-2a59.4,59.4,0,0,0-1.4,21.8c.1.7,2.2,1.4,3.5,1.5s1.9-.9,2.5-1.7c4.2-5.6,8.7-11,12.3-17.1,1.9-3.3,2.2-7.7,2.9-11.6.2-.8-.7-1.9-1.3-2.6-4.3-4.5-1.9-15.4,4.1-15.8,3.7-.2,8,2.6,11.2,5.1s2.9,5.3,4.4,8.3a14.5,14.5,0,0,0,1.2-2.2c.5-1.3.9-2.7,1.4-4.1,2.2-5.8,5-11.5,6.4-17.6s9.5-10.7,16.4-5.3,11.3,10.1,14.7,17c.8,1.6,2.3,2.8,3.8,4.6,1.5-1.7,3.1-2.9,3.9-4.4,4.3-8.7,8.7-17.3,12.6-26.2,2.1-4.9,6.5-5.4,10.3-5.9,1.9-.3,4.7,2.7,6.4,4.7s4.9,6.9,7.3,10.3,3.5,5,5,7.6c3.5,6.2,7.1,12.4,10.2,18.8s2.3,9.3-.5,10.7-10.7-.5-13.4-5c-4.3-7.5-8.7-15-13.1-22.4-2.8-4.7-3.7-4.8-6.6-.4s-5.1,8.8-7.5,13.3-5.3,10.8-8.2,16.1c-.7,1.2-2.5,1.7-3.7,2.5l-4.5,3.2c-1.3.8-3.3,2.2-3.9,1.8-2.2-1.3-5.1-3.2-5.6-5.3-1.7-7.7-4.3-14.9-8.9-21.3a6.3,6.3,0,0,0-3.3-2.3c-.7-.1-2,1.5-2.4,2.6-4.3,11-9.2,21.9-7.6,34.3.1,1-.2,2.7-1,3.1-4.1,2.4-8.2,5.5-12.7,6.5s-4.7-4.3-6.2-7.2S1136.9,245.7,1136.1,243.1Z" transform="translate(-389.5 -114.9)"/><path class="cls-1" d="M747.3,383.4c.7.1,1.3.4,1.7.3a39.6,39.6,0,0,1,22.6-1.4,89.8,89.8,0,0,1,15.7,5.8c2.5,1.1,5.3,2.7,6.9,4.9a19.4,19.4,0,0,1,1.6,20.8c-8.4,16.8-18.6,32.5-31.5,46.4a123,123,0,0,1-12.8,12.2,39.9,39.9,0,0,1-11.7,6.2c-9.1,2.7-11.5,1-15.4-8.3-4.5-10.9-5.2-22.5-3.5-34.1,1.1-7.1,2.5-14.2,3.8-21.3.4-2.6-.2-4-3.4-3.4s-6.3.7-9.4.9-7.1-2-8-5.2,2.6-8.9,6.4-10.6,9.8-5.2,15.1-6.5,7.4-6.1,9.4-10.6,3.7-8.9,2.3-14c-.3-1.2,1-3.3,2.1-4.3,6-5,13.3-3.1,18,4.6a19.2,19.2,0,0,1,1.2,2.5c.8,2.1,2.7,5.5,2,6.1-2.2,2.1-5.3,4.2-8.2,4.4S747.6,380.2,747.3,383.4Zm-15.2,54.5c1.5,6.8,2.7,13.6,4.5,20.2,1.3,4.6,4.5,5.5,8.5,2.8,7.9-5.3,13.9-12.6,20-19.8a187.2,187.2,0,0,0,13-16.7c3.7-5.7,7.9-11.6,7.4-18.8-.2-3.1-1.9-7.4-4.4-8.9s-7.6-2.1-11.5-1.9c-8.2.5-16.4,1.6-24.6,2.7a5.9,5.9,0,0,0-4.1,3.4,125.3,125.3,0,0,0-3.9,14C735.3,422.4,733.8,429.9,732.1,437.9Z" transform="translate(-389.5 -114.9)"/><path class="cls-1" d="M843,358.3c-2.2,5.4-5,10.6-6.5,16.1-3.5,12.6-6.3,25.3-9.4,37.9-.3,1.5-1,3.2-.7,4.6,2,8-3.9,10.7-9.1,13.6s-9-.5-9.7-5.7c-1.2-8.1-1.9-16.3-3.1-24.4a64.2,64.2,0,0,0-2.4-9.6c-1.9-6.1-3.4-12.4-5.9-18.3-1.1-2.7-3.9-4.9-6.4-6.8-7-5.2-7.7-11.2-2.3-18.1,2-2.5,3.9-2,6.3-1.6a10.4,10.4,0,0,1,8.5,8.8,3.5,3.5,0,0,0,.6,1.8c6.5,7.6,7.1,17.5,10.7,26.2,1.4,3.3,2.7,6.7,4.5,11,1.8-4.5,3.3-8.1,4.6-11.7,2.7-7.7,5.3-15.4,7.7-23.2a104.4,104.4,0,0,0,3.8-15.6c.6-3.6,2.3-6.1,5.7-6.6s7.1.1,8.9,3.6c3.5,6.3,6.6,12.8,9.9,19.1,6.4,12.2,11.9,25.1,24.4,32.7,1.9,1.2,4.3,1.6,6.5,2.2s2.7.4,3.8.9,2.1,1.5,2.2,2.3a3.8,3.8,0,0,1-1.7,2.8,93.8,93.8,0,0,1-8.5,5.4c-3.2,1.9-10.5-.1-13.4-3a100.5,100.5,0,0,1-17.6-23.4c-1.2-2.2-2.1-4.5-3.1-6.8-2.3-4.7-4.5-9.5-6.8-14.3Z" transform="translate(-389.5 -114.9)"/><path class="cls-1" d="M943.1,328l16-36.8,1.4.3c.2,4.6,1,9.2.5,13.8a111.1,111.1,0,0,1-7.1,28.9c-.7,1.7-1.6,3.6-1.4,5.3.7,5.6-3.1,8.1-6.7,11a22,22,0,0,0-3,3.1c-1.7,2.2-5.2,2.5-6.6,0s-3.1-6.8-4.6-10.2a81.7,81.7,0,0,0-4.8-9.3c-.3,8.4-3.4,15.9-6.8,23.1-4.3,9.1-8.2,18.6-17.6,24-5.5,3.2-12.4,1-13.6-5.2a260.3,260.3,0,0,1-4.4-29c-1-11.5,2.1-22.2,8-32.2,2.6-4.4,7.1-5.9,12.1-4.4s6.9,2.8,9,6.3a2.9,2.9,0,0,0,2.3,1c.7-.2,1.2-1.2,1.6-2a3.6,3.6,0,0,0,.2-1.5c-.3-2.5-2.2-5.4,1.7-6.6s10.7.2,12.3,3.1,2.9,6.7,4.8,9.8S940.6,325.3,943.1,328Zm-41.6,35.7c2.1-2.6,3.6-4,4.7-5.8,2.5-4,4.2-8.6,7.3-12.1s5.8-10.8,7.4-16.7c.4-1.2-.5-2.7-.7-4.1-2.9,4.8-3.1,4.9-7.8,3a21.7,21.7,0,0,1-4.4-1.9c-3.4-2.3-5.4,0-7.2,2.2a17.6,17.6,0,0,0-1.6,4c-3.3,8.9-1,17.7.4,26.5A45.3,45.3,0,0,0,901.5,363.7Z" transform="translate(-389.5 -114.9)"/><path class="cls-1" d="M1464.9,275.7a1.7,1.7,0,0,0-.2-1.3c-3.3-3.3-1.1-5.5,1.3-7.9a3.9,3.9,0,0,0,1.2-1.9c1.5-4.6,5.4-4.7,9.1-4.5,5.6.4,8.4,3.2,9.7,7.1s-1.5,5.5-3.2,7.4a41.3,41.3,0,0,1-10,8.3C1469.2,284.9,1464.5,280.8,1464.9,275.7Z" transform="translate(-389.5 -114.9)"/><path class="cls-1" d="M422.8,696.9l4.1-5c.4-.4.9-.6,1.2-1.1,2.9-4.7,5.7-9.5,8.5-14.3.6-.9,1.1-2.7,1.8-2.8a5.9,5.9,0,0,1,4.1,1.2c.7.8,1,3.2.4,3.9-3.1,3.6-3.7,9.7-9.9,10.4-.6.1-1.2,1.5-1.6,2.4C429.9,694.6,428.4,697.5,422.8,696.9Z" transform="translate(-389.5 -114.9)"/><path class="cls-1" d="M426.4,698.9c0,2.4.6,4.9-.2,7s-3.3,6.4-5.3,9.5a3.9,3.9,0,0,1-2.9,1.4c-.6,0-1.5-1.2-1.7-2-1.3-3.6,0-6.4,3.5-8s4.2-1.5,3.1-4.7c-.3-.9,1.3-2.4,2.1-3.6Z" transform="translate(-389.5 -114.9)"/><path class="cls-1" d="M468.1,638.7c-2.7,9.1-9,15.3-16.6,20.3C456.5,651.9,460.4,643.7,468.1,638.7Z" transform="translate(-389.5 -114.9)"/><path class="cls-1" d="M499.3,606.8l-11.8,8.4C486.9,609.7,492.6,605.1,499.3,606.8Z" transform="translate(-389.5 -114.9)"/><path class="cls-1" d="M506.9,591.7c-1.4,3.4-2.8,6.9-4.1,10.3l-1.6-.6C500,596.9,504.4,594.8,506.9,591.7Z" transform="translate(-389.5 -114.9)"/><path class="cls-1" d="M485.4,617.2l-5.7,6.7-1.4-1.2,6.2-6.3Z" transform="translate(-389.5 -114.9)"/></svg>