<svg xmlns="http://www.w3.org/2000/svg" viewBox="0 0 747 464"><defs><style>.cls-1{fill:#fff;}</style></defs><g id="Layer_2" data-name="Layer 2"><g id="Layer_1-2" data-name="Layer 1"><path class="cls-1" d="M0,0H740.1c7.7,0,6.9-.8,6.9,6.7V456.4c0,6.6,0,6.6-6.5,6.6H9.8c-1.9,0-4-.3-5.5.4-3.3,1.5-4,.1-4.3-2.7V0ZM458.9,3.6l-1.7-.3c-4.5.2-9,.4-13.5.8a529,529,0,0,0-142,32.6C181.4,82.6,94.2,163.2,44.5,282.9,23.6,333.3,11.8,386,5.7,440.1c-.8,7.2-1.3,14.4-2,21.7H458.9Zm1.4-.9V337.5c12.1-32.3,17-37.2,52.7-52.4H462.9v-1.2H744.2c-7.3-83.6-33.6-157.6-99.5-212.6C591.6,27,529.1,6.9,460.3,2.7ZM1.2,1V460.8a4.3,4.3,0,0,0,.8-2.3c4-45.2,11.7-89.8,25.2-133.2,20.2-65,51.5-123.9,98.1-173.9C205.2,65.6,306.1,21.5,420.5,4.8c10.6-1.5,21.3-2.3,31.9-3.5V1ZM569.9,285.3V459.8c47.8-4.2,90.3-19.6,124.2-54.1s46-74.8,49.9-120.4Zm176.4-11.5c-.2.9-.2.7-.2.6q.1-134.7.1-269.3c0-3.7-1.4-4.4-4.7-4.4h-265c-1.7,0-3.3.2-5,.3,19.6,2.9,39.1,5.4,58,10.4,106.6,28.6,176.4,95.1,205,202.7C739.7,234,742.5,254.4,746.3,273.8ZM745.9,462V292.3c-.3,1.3-.6,2.2-.8,3.1-.8,5.2-1.6,10.4-2.6,15.6C729,383.7,687.4,431.8,616.3,453.3c-21.5,6.5-43.6,10.9-66.3,6-42.7-9.2-72.4-33.1-85.7-75.6-1.4-4.6-2.4-9.2-3.9-14.8V462ZM460.5,352.1c2.7,31.3,12.4,59,36.6,80,20.3,17.7,44.5,25.8,71.1,27.5V352.1Zm66.6-65.7c-32.7-3-67.7,31.1-65.9,64.1h65.9Zm39.6,38.1c-.6-20.8-20.6-40.3-38.1-37.7v37.7Zm.1,1.1c-6.8,0-13.3-.1-19.8.1-.9,0-2.5,1.3-2.5,2-.2,7.4-.1,14.8-.1,22.2C557.5,349.7,567.1,339.4,566.8,325.6Zm1.6-40.2H539c15.5,5.7,25,16.4,29.4,32Zm-25.2,64.9c.1-1.2.3-2.4.3-3.6V336c-2.8-.4-5.1-.9-7.5-1s-4.7-.1-7.1-.1C529.6,345,534.2,349.7,543.2,350.3Zm25.3.4V334.5a30.6,30.6,0,0,1-15.9,16.2Zm-31.9-24.6-7.7,6.6.8.9h6.9Zm-8.1,24.4h4.8c-1.4-1.6-3.2-3.4-4.8-5Z"/></g></g></svg>